<mxfile host="app.diagrams.net" modified="2020-10-28T19:24:01.696Z" agent="5.0 (Windows NT 10.0; Win64; x64) AppleWebKit/537.36 (KHTML, like Gecko) Chrome/86.0.4240.111 Safari/537.36" etag="HL5puX3GP_-FNMRmzHrm" version="13.8.5" type="github">
  <diagram id="w2wjrcr9flUoTN5zD-UQ" name="Page-1">
    <mxGraphModel dx="813" dy="435" grid="1" gridSize="10" guides="1" tooltips="1" connect="1" arrows="1" fold="1" page="1" pageScale="1" pageWidth="850" pageHeight="1100" math="0" shadow="0">
      <root>
        <mxCell id="0" />
        <mxCell id="1" parent="0" />
        <mxCell id="1eVZeBFMe8PsIi9BE2N1-1" value="" style="rounded=0;whiteSpace=wrap;html=1;" vertex="1" parent="1">
          <mxGeometry x="200" y="120" width="480" height="380" as="geometry" />
        </mxCell>
        <mxCell id="1eVZeBFMe8PsIi9BE2N1-2" value="&lt;font style=&quot;font-size: 20px&quot;&gt;Customer Account Creation&lt;br&gt;&lt;/font&gt;" style="text;html=1;strokeColor=none;fillColor=none;align=center;verticalAlign=middle;whiteSpace=wrap;rounded=0;fontStyle=1" vertex="1" parent="1">
          <mxGeometry x="305.63" y="120" width="268.75" height="20" as="geometry" />
        </mxCell>
        <mxCell id="1eVZeBFMe8PsIi9BE2N1-3" style="edgeStyle=orthogonalEdgeStyle;rounded=0;orthogonalLoop=1;jettySize=auto;html=1;entryX=-0.04;entryY=0.445;entryDx=0;entryDy=0;entryPerimeter=0;endArrow=none;endFill=0;" edge="1" parent="1" source="1eVZeBFMe8PsIi9BE2N1-4" target="1eVZeBFMe8PsIi9BE2N1-5">
          <mxGeometry relative="1" as="geometry" />
        </mxCell>
        <mxCell id="1eVZeBFMe8PsIi9BE2N1-4" value="&lt;font style=&quot;font-size: 16px&quot;&gt;Customer&lt;/font&gt;" style="shape=umlActor;verticalLabelPosition=bottom;verticalAlign=top;html=1;outlineConnect=0;" vertex="1" parent="1">
          <mxGeometry x="130" y="140" width="60" height="90" as="geometry" />
        </mxCell>
        <mxCell id="1eVZeBFMe8PsIi9BE2N1-5" value="&lt;font style=&quot;font-size: 16px&quot;&gt;Enter Personal Info&lt;/font&gt;" style="ellipse;whiteSpace=wrap;html=1;" vertex="1" parent="1">
          <mxGeometry x="250" y="165" width="160" height="45" as="geometry" />
        </mxCell>
        <mxCell id="1eVZeBFMe8PsIi9BE2N1-8" value="&lt;font style=&quot;font-size: 16px&quot;&gt;Create Password&lt;/font&gt;" style="ellipse;whiteSpace=wrap;html=1;" vertex="1" parent="1">
          <mxGeometry x="220" y="350" width="120" height="45" as="geometry" />
        </mxCell>
        <mxCell id="1eVZeBFMe8PsIi9BE2N1-9" value="&amp;lt;&amp;lt;Include&amp;gt;&amp;gt;" style="rounded=0;orthogonalLoop=1;jettySize=auto;html=1;exitX=0.5;exitY=0;exitDx=0;exitDy=0;entryX=0.5;entryY=1;entryDx=0;entryDy=0;endArrow=open;endFill=0;dashed=1;" edge="1" parent="1" source="1eVZeBFMe8PsIi9BE2N1-10" target="1eVZeBFMe8PsIi9BE2N1-5">
          <mxGeometry relative="1" as="geometry" />
        </mxCell>
        <mxCell id="1eVZeBFMe8PsIi9BE2N1-10" value="&lt;font style=&quot;font-size: 16px&quot;&gt;Create Username&lt;/font&gt;" style="ellipse;whiteSpace=wrap;html=1;" vertex="1" parent="1">
          <mxGeometry x="250" y="255" width="120" height="45" as="geometry" />
        </mxCell>
        <mxCell id="1eVZeBFMe8PsIi9BE2N1-11" value="&lt;font style=&quot;font-size: 16px&quot;&gt;Enter Payment Method&lt;/font&gt;" style="ellipse;whiteSpace=wrap;html=1;" vertex="1" parent="1">
          <mxGeometry x="540" y="185" width="120" height="45" as="geometry" />
        </mxCell>
        <mxCell id="1eVZeBFMe8PsIi9BE2N1-12" value="&lt;font style=&quot;font-size: 16px&quot;&gt;Enter Contact Info&lt;/font&gt;" style="ellipse;whiteSpace=wrap;html=1;" vertex="1" parent="1">
          <mxGeometry x="480" y="277.5" width="120" height="45" as="geometry" />
        </mxCell>
        <mxCell id="1eVZeBFMe8PsIi9BE2N1-15" value="&lt;font style=&quot;font-size: 16px&quot;&gt;Assign Member Number&lt;/font&gt;" style="ellipse;whiteSpace=wrap;html=1;" vertex="1" parent="1">
          <mxGeometry x="440" y="430" width="150" height="45" as="geometry" />
        </mxCell>
        <mxCell id="1eVZeBFMe8PsIi9BE2N1-16" value="&amp;lt;&amp;lt;Include&amp;gt;&amp;gt;" style="rounded=0;orthogonalLoop=1;jettySize=auto;html=1;exitX=0.5;exitY=0;exitDx=0;exitDy=0;entryX=0.5;entryY=1;entryDx=0;entryDy=0;endArrow=open;endFill=0;dashed=1;" edge="1" parent="1" source="1eVZeBFMe8PsIi9BE2N1-8" target="1eVZeBFMe8PsIi9BE2N1-10">
          <mxGeometry relative="1" as="geometry">
            <mxPoint x="439.8" y="395" as="sourcePoint" />
            <mxPoint x="439.8" y="350" as="targetPoint" />
          </mxGeometry>
        </mxCell>
        <mxCell id="1eVZeBFMe8PsIi9BE2N1-17" value="&amp;lt;&amp;lt;Include&amp;gt;&amp;gt;" style="rounded=0;orthogonalLoop=1;jettySize=auto;html=1;exitX=0.035;exitY=0.409;exitDx=0;exitDy=0;entryX=0.979;entryY=0.444;entryDx=0;entryDy=0;endArrow=open;endFill=0;dashed=1;exitPerimeter=0;entryPerimeter=0;" edge="1" parent="1" source="1eVZeBFMe8PsIi9BE2N1-11" target="1eVZeBFMe8PsIi9BE2N1-5">
          <mxGeometry relative="1" as="geometry">
            <mxPoint x="490" y="400" as="sourcePoint" />
            <mxPoint x="520" y="350" as="targetPoint" />
          </mxGeometry>
        </mxCell>
        <mxCell id="1eVZeBFMe8PsIi9BE2N1-19" value="&amp;lt;&amp;lt;Include&amp;gt;&amp;gt;" style="rounded=0;orthogonalLoop=1;jettySize=auto;html=1;exitX=0.035;exitY=0.389;exitDx=0;exitDy=0;entryX=0.834;entryY=0.836;entryDx=0;entryDy=0;endArrow=open;endFill=0;dashed=1;exitPerimeter=0;entryPerimeter=0;" edge="1" parent="1" source="1eVZeBFMe8PsIi9BE2N1-12" target="1eVZeBFMe8PsIi9BE2N1-5">
          <mxGeometry relative="1" as="geometry">
            <mxPoint x="400.00000000000006" y="368.4" as="sourcePoint" />
            <mxPoint x="401.1999999999999" y="300" as="targetPoint" />
          </mxGeometry>
        </mxCell>
        <mxCell id="1eVZeBFMe8PsIi9BE2N1-23" value="&amp;lt;&amp;lt;Include&amp;gt;&amp;gt;" style="rounded=0;orthogonalLoop=1;jettySize=auto;html=1;exitX=0.676;exitY=0.085;exitDx=0;exitDy=0;entryX=0.659;entryY=0.969;entryDx=0;entryDy=0;endArrow=open;endFill=0;dashed=1;exitPerimeter=0;entryPerimeter=0;" edge="1" parent="1" source="1eVZeBFMe8PsIi9BE2N1-15" target="1eVZeBFMe8PsIi9BE2N1-5">
          <mxGeometry relative="1" as="geometry">
            <mxPoint x="380" y="508.4000000000001" as="sourcePoint" />
            <mxPoint x="381.1999999999998" y="440.0000000000001" as="targetPoint" />
          </mxGeometry>
        </mxCell>
      </root>
    </mxGraphModel>
  </diagram>
</mxfile>
